<?xml version="1.0" encoding="utf-8"?>
<!-- Generator: Adobe Illustrator 19.1.0, SVG Export Plug-In . SVG Version: 6.00 Build 0)  -->
<svg version="1.1" baseProfile="tiny" id="Layer_1" xmlns="http://www.w3.org/2000/svg" xmlns:xlink="http://www.w3.org/1999/xlink"
	 x="0px" y="0px" viewBox="0 0 40 40" xml:space="preserve">
<circle fill="#E21047" cx="20" cy="20" r="14.9"/>
<g>
	<path fill="#FFFFFF" d="M21.6,23.8h-3.2c0-2,0.2-3.1,1.3-4.4c1.4-1.6,2.2-2.2,2.2-3.7c0-1.1-0.8-2-1.9-2c-1.2,0-2.1,0.9-2.1,2.4
		h-3.6c0.1-3.5,2.3-5.7,5.8-5.7c3.5,0,5.7,2.2,5.7,5c0,2.1-1.1,3.6-2.8,5.2C22,21.5,21.6,22.3,21.6,23.8z M18.1,26h3.8v3.5h-3.8V26z
		"/>
</g>
</svg>
