<?xml version="1.0" encoding="utf-8"?>
<!-- Generator: Adobe Illustrator 19.1.0, SVG Export Plug-In . SVG Version: 6.00 Build 0)  -->
<svg version="1.1" id="Layer_1" xmlns="http://www.w3.org/2000/svg" xmlns:xlink="http://www.w3.org/1999/xlink" x="0px" y="0px"
	 viewBox="910 -152.3 1920 404.7" style="enable-background:new 910 -152.3 1920 404.7;" xml:space="preserve">
<style type="text/css">
	.st0{fill:#E11048;}
	.st1{fill:none;stroke:#FFFFFF;stroke-width:25.4139;stroke-miterlimit:10;}
	.st2{fill:#FFFFFF;}
</style>
<rect x="910" y="-152.3" class="st0" width="1920" height="404.7"/>
<polyline class="st1" points="967.7,75.2 1011.3,105.7 1105,-31.5 "/>
<g>
	<path class="st2" d="M1219,44h-29c-1.4-8.7-9.6-17.3-21.7-17.3c-17,0-26.1,14.6-26.1,32.1c0,17,10.3,32.4,26.3,32.4
		c14,0,20.5-10.3,22.3-19h30.1c-4.9,22.2-23,42-53,42c-32.2,0-53.3-24-53.3-55.5s22.3-54.9,54-54.9C1197.5,3.7,1216.4,24.4,1219,44z
		"/>
	<path class="st2" d="M1286,3.7c34.2,0,54.6,26.4,54.6,55.2c0,30.1-23.4,55.2-54.9,55.2c-38.1,0-55-29.6-55-55.2
		C1230.7,29.4,1253.8,3.7,1286,3.7z M1285.6,89.6c15.7,0,27.4-13.4,27.4-30.7c0-17-10.5-30.7-27.1-30.7c-15.5,0-27.5,13.2-27.5,30.7
		C1258.3,76.2,1270.1,89.6,1285.6,89.6z"/>
	<path class="st2" d="M1354.9,7.1h35c22.2,0,40.1,10.8,40.1,34.2c0,21.3-13.4,34.5-40.6,34.5h-7.3v35h-27.2V7.1z M1388.5,28.2h-6.4
		v26.4h6.1c11.9,0,14.4-7,14.4-13.1C1402.6,34.9,1398.9,28.2,1388.5,28.2z"/>
	<path class="st2" d="M1442.7,7.1h27.2v103.7h-27.2V7.1z"/>
	<path class="st2" d="M1554.4,30.3h-37.8v16.1h36.5v21.7h-36.5v19.3h39.4v23.3h-66.6V7.1h65.1L1554.4,30.3L1554.4,30.3z"/>
	<path class="st2" d="M1610.7,7.1c37.4,0,57.3,23.6,57.3,51.8c0,28.1-21.1,51.8-57.6,51.8H1574V7.1H1610.7z M1609.2,87
		c21.9,0,31.2-12.8,31.2-28.1c0-16.6-10-28.1-31.2-28.1h-7.9V87H1609.2z"/>
	<path class="st2" d="M1734.4,30.3h-23.3V7h73.9v23.3h-23.3v80.4h-27.4L1734.4,30.3L1734.4,30.3z"/>
	<path class="st2" d="M1844,3.7c34.2,0,54.6,26.4,54.6,55.2c0,30.1-23.4,55.2-54.9,55.2c-38.1,0-55-29.6-55-55.2
		C1788.7,29.4,1811.8,3.7,1844,3.7z M1843.5,89.6c15.7,0,27.4-13.4,27.4-30.7c0-17-10.5-30.7-27.1-30.7c-15.5,0-27.5,13.2-27.5,30.7
		C1816.3,76.2,1828,89.6,1843.5,89.6z"/>
	<path class="st2" d="M2050.3,44h-29c-1.4-8.7-9.6-17.3-21.7-17.3c-17,0-26.1,14.6-26.1,32.1c0,17,10.3,32.4,26.3,32.4
		c14,0,20.5-10.3,22.3-19h30.1c-4.9,22.2-23,42-53,42c-32.2,0-53.3-24-53.3-55.5s22.3-54.9,54-54.9
		C2028.8,3.7,2047.7,24.4,2050.3,44z"/>
	<path class="st2" d="M2067.1,7.1h27.2v80.4h39.4v23.3h-66.6V7.1z"/>
	<path class="st2" d="M2144,7.1h27.2v103.7H2144V7.1z"/>
	<path class="st2" d="M2190.7,7.1h35c22.2,0,40.1,10.8,40.1,34.2c0,21.3-13.4,34.5-40.6,34.5h-7.3v35h-27.2V7.1z M2224.3,28.2h-6.4
		v26.4h6.1c11.9,0,14.4-7,14.4-13.1C2238.4,34.9,2234.8,28.2,2224.3,28.2z"/>
	<path class="st2" d="M2278.7,7.1h32.1c21.4,0,37.1,7.8,37.1,26c0,11.2-8.7,19.5-19.5,21.6V55c15.5,2.4,23.9,13.5,23.9,25.2
		c0,18.8-15.8,30.6-37.2,30.6h-36.3L2278.7,7.1L2278.7,7.1z M2309.1,26.1h-5.2v20.7h5.9c8.7,0,11.4-4.1,11.4-10.9
		C2321.3,30.2,2317.6,26.1,2309.1,26.1z M2310.9,65.3h-7v26h7c8.7,0,14.1-4.6,14.1-13.4C2325.1,70.7,2319.8,65.3,2310.9,65.3z"/>
	<path class="st2" d="M2416.7,3.7c34.2,0,54.6,26.4,54.6,55.2c0,30.1-23.4,55.2-54.9,55.2c-38.2,0-55-29.6-55-55.2
		C2361.4,29.4,2384.5,3.7,2416.7,3.7z M2416.3,89.6c15.7,0,27.4-13.4,27.4-30.7c0-17-10.5-30.7-27.1-30.7
		c-15.5,0-27.5,13.2-27.5,30.7C2389.1,76.2,2400.8,89.6,2416.3,89.6z"/>
	<path class="st2" d="M2513.1,7.1h25.7l36.5,103.7h-27.4l-6.7-20.8h-33.7l-6.7,20.8h-26.9L2513.1,7.1z M2513.2,71.8h22.2l-7.1-22.2
		c-2-5.9-2.4-8.2-3.5-12.6h-0.8c-1.2,4.6-2,7.8-3.6,12.8L2513.2,71.8z"/>
	<path class="st2" d="M2670.9,110.7h-31.6L2613,71.5h-2.7v39.2H2583V7.1h33.7c31,0,41.8,13.7,41.8,32.4c0,14.9-8.5,24.2-19.3,28
		L2670.9,110.7z M2617.7,28.2h-7.4V53h7.6c7.4,0,12.9-4.3,12.9-12.2C2630.7,33,2626,28.2,2617.7,28.2z"/>
	<path class="st2" d="M2713.4,7.1c37.4,0,57.3,23.6,57.3,51.8c0,28.1-21.1,51.8-57.6,51.8h-36.3V7.1H2713.4z M2711.9,87
		c21.9,0,31.2-12.8,31.2-28.1c0-16.6-10-28.1-31.2-28.1h-7.9V87H2711.9z"/>
</g>
</svg>
