<?xml version="1.0" encoding="utf-8"?>
<!-- Generator: Adobe Illustrator 19.1.0, SVG Export Plug-In . SVG Version: 6.00 Build 0)  -->
<svg version="1.1" baseProfile="tiny" id="Layer_1" xmlns="http://www.w3.org/2000/svg" xmlns:xlink="http://www.w3.org/1999/xlink"
	 x="0px" y="0px" viewBox="0 0 223 47" xml:space="preserve">
<rect fill="#242630" width="223" height="47"/>
<g>
	<path fill="#FFFFFF" d="M31.7,21.4h-4.1c-0.2-1.2-1.3-2.4-3.1-2.4c-2.4,0-3.7,2.1-3.7,4.5c0,2.4,1.5,4.5,3.7,4.5
		c2,0,2.9-1.5,3.1-2.7H32c-0.7,3.1-3.2,5.9-7.5,5.9c-4.5,0-7.5-3.4-7.5-7.8s3.1-7.7,7.6-7.7C28.7,15.8,31.3,18.7,31.7,21.4z"/>
	<path fill="#FFFFFF" d="M41.1,15.8c4.8,0,7.7,3.7,7.7,7.8c0,4.2-3.3,7.8-7.7,7.8c-5.4,0-7.7-4.2-7.7-7.8
		C33.3,19.4,36.6,15.8,41.1,15.8z M41.1,27.8c2.2,0,3.8-1.9,3.8-4.3c0-2.4-1.5-4.3-3.8-4.3c-2.2,0-3.9,1.9-3.9,4.3
		C37.2,25.9,38.9,27.8,41.1,27.8z"/>
	<path fill="#FFFFFF" d="M50.8,16.2h4.9c3.1,0,5.6,1.5,5.6,4.8c0,3-1.9,4.8-5.7,4.8h-1v4.9h-3.8V16.2z M55.5,19.2h-0.9v3.7h0.9
		c1.7,0,2-1,2-1.8C57.5,20.1,57,19.2,55.5,19.2z"/>
	<path fill="#FFFFFF" d="M66.3,25.1l-4.8-8.8h4.1l1.9,3.7c0.3,0.6,0.6,1.3,0.8,1.9h0c0.2-0.6,0.4-1.2,0.8-1.9l1.8-3.8h4l-4.8,8.8
		v5.7h-3.8V25.1z"/>
	<path fill="#FFFFFF" d="M86.8,16.2c5.3,0,8.1,3.3,8.1,7.3c0,4-3,7.3-8.1,7.3h-5.1V16.2H86.8z M86.6,27.5c3.1,0,4.4-1.8,4.4-4
		c0-2.3-1.4-4-4.4-4h-1.1v7.9H86.6z"/>
	<path fill="#FFFFFF" d="M96.9,16.2h3.8v14.6h-3.8V16.2z"/>
	<path fill="#FFFFFF" d="M115.8,30.8h-4.4l-3.7-5.5h-0.4v5.5h-3.8V16.2h4.7c4.4,0,5.9,1.9,5.9,4.6c0,2.1-1.2,3.4-2.7,3.9L115.8,30.8
		z M108.3,19.2h-1v3.5h1.1c1,0,1.8-0.6,1.8-1.7C110.2,19.9,109.5,19.2,108.3,19.2z"/>
	<path fill="#FFFFFF" d="M125.7,19.5h-5.3v2.3h5.1v3.1h-5.1v2.7h5.5v3.3h-9.4V16.2h9.1V19.5z"/>
	<path fill="#FFFFFF" d="M142.5,21.4h-4.1c-0.2-1.2-1.3-2.4-3.1-2.4c-2.4,0-3.7,2.1-3.7,4.5c0,2.4,1.5,4.5,3.7,4.5
		c2,0,2.9-1.5,3.1-2.7h4.2c-0.7,3.1-3.2,5.9-7.5,5.9c-4.5,0-7.5-3.4-7.5-7.8s3.1-7.7,7.6-7.7C139.4,15.8,142.1,18.7,142.5,21.4z"/>
	<path fill="#FFFFFF" d="M146.4,19.5h-3.3v-3.3h10.4v3.3h-3.3v11.3h-3.8V19.5z"/>
	<path fill="#FFFFFF" d="M160.3,16.2h3.8v11.3h5.5v3.3h-9.4V16.2z"/>
	<path fill="#FFFFFF" d="M171.1,16.2h3.8v14.6h-3.8V16.2z"/>
	<path fill="#FFFFFF" d="M180.8,21.8c0,0.6,0.1,2,0.1,2.6v6.3h-3.2V16.2h3.2l3.6,5.8c1.1,1.8,1.4,2.6,1.8,3.3h0.1
		c0-0.6-0.1-1.8-0.1-2.3v-6.7h3.2v14.6h-3.2l-3.1-4.9C181.7,23.5,181.3,22.5,180.8,21.8L180.8,21.8z"/>
	<path fill="#FFFFFF" d="M196.6,25.1l-0.5,0.5v5.2h-3.8V16.2h3.8v4.8l4.5-4.8h4.7l-6.2,6.4l6.8,8.2h-4.8L196.6,25.1z"/>
</g>
</svg>
