<?xml version="1.0" encoding="utf-8"?>
<!-- Generator: Adobe Illustrator 19.1.0, SVG Export Plug-In . SVG Version: 6.00 Build 0)  -->
<svg version="1.1" id="Layer_1" xmlns="http://www.w3.org/2000/svg" xmlns:xlink="http://www.w3.org/1999/xlink" x="0px" y="0px"
	 viewBox="-29 47.3 300 23.7" style="enable-background:new -29 47.3 300 23.7;" xml:space="preserve">
<style type="text/css">
	.st0{fill:#E11048;}
	.st1{fill:#FDFDFE;}
	.st2{fill:#FEFEFE;}
</style>
<rect x="-29" y="47.3" class="st0" width="300" height="23.7"/>
<g>
	<path class="st1" d="M55,55.4c-0.8,0-1.5,0.3-1.9,1c-0.5,0.7-0.7,1.6-0.7,2.8c0,2.5,0.9,3.7,2.8,3.7c0.6,0,1.1-0.1,1.7-0.2
		s1.1-0.3,1.6-0.6V65c-1.1,0.5-2.3,0.7-3.6,0.7c-1.9,0-3.4-0.6-4.5-1.7c-1-1.1-1.6-2.8-1.6-4.9c0-1.3,0.2-2.5,0.8-3.5
		c0.5-1,1.2-1.8,2.2-2.3c0.9-0.5,2-0.8,3.3-0.8c1.4,0,2.7,0.3,4,0.9L58,56.2c-0.5-0.2-0.9-0.4-1.4-0.6S55.6,55.4,55,55.4z"/>
	<path class="st1" d="M61,65.6V52.7h3.5v10h4.9v2.8H61z"/>
	<path class="st1" d="M71.4,65.6V52.7h3.5v12.8H71.4z"/>
	<path class="st1" d="M83.4,55.4c-0.8,0-1.5,0.3-1.9,1c-0.5,0.7-0.7,1.6-0.7,2.8c0,2.5,0.9,3.7,2.8,3.7c0.6,0,1.1-0.1,1.7-0.2
		s1.1-0.3,1.6-0.6V65c-1.1,0.5-2.3,0.7-3.6,0.7c-1.9,0-3.4-0.6-4.5-1.7c-1-1.1-1.6-2.8-1.6-4.9c0-1.3,0.2-2.5,0.8-3.5
		c0.5-1,1.2-1.8,2.2-2.3c0.9-0.5,2-0.8,3.3-0.8c1.4,0,2.7,0.3,4,0.9l-1.1,2.7c-0.5-0.2-0.9-0.4-1.4-0.6S84,55.4,83.4,55.4z"/>
	<path class="st1" d="M100.4,65.6h-3.9l-2.5-4.9l-1,0.6v4.3h-3.5V52.7h3.5v5.6c0.2-0.3,0.5-0.9,1.1-1.6l2.7-3.9h3.8l-4.1,5.8
		L100.4,65.6z"/>
	<path class="st1" d="M112.1,65.6h-3.5v-10h-3.1v-2.8h9.7v2.8h-3.1V65.6z"/>
	<path class="st1" d="M129.1,59.1c0,2.2-0.5,3.8-1.6,4.9c-1.1,1.1-2.6,1.7-4.7,1.7c-2,0-3.6-0.6-4.6-1.7c-1.1-1.1-1.6-2.8-1.6-4.9
		c0-2.1,0.5-3.8,1.6-4.9s2.6-1.7,4.7-1.7c2,0,3.6,0.6,4.6,1.7S129.1,57,129.1,59.1z M120.2,59.1c0,2.5,0.9,3.7,2.6,3.7
		c0.9,0,1.5-0.3,2-0.9c0.4-0.6,0.6-1.5,0.6-2.8c0-1.3-0.2-2.2-0.6-2.8c-0.4-0.6-1.1-0.9-1.9-0.9C121.1,55.4,120.2,56.6,120.2,59.1z"
		/>
	<path class="st1" d="M144.5,61.7c0,0.8-0.2,1.5-0.6,2.1c-0.4,0.6-1,1.1-1.7,1.4c-0.8,0.3-1.7,0.5-2.7,0.5c-0.9,0-1.6-0.1-2.2-0.2
		c-0.6-0.1-1.2-0.3-1.8-0.6v-3.1c0.7,0.3,1.4,0.6,2.1,0.8c0.7,0.2,1.4,0.3,2,0.3c0.5,0,0.9-0.1,1.1-0.3c0.2-0.2,0.4-0.4,0.4-0.7
		c0-0.2,0-0.3-0.1-0.5c-0.1-0.1-0.3-0.3-0.5-0.4c-0.2-0.1-0.8-0.4-1.7-0.8c-0.8-0.4-1.5-0.8-1.9-1.1s-0.7-0.8-0.9-1.2
		c-0.2-0.5-0.3-1-0.3-1.6c0-1.2,0.4-2.1,1.3-2.8s2-1,3.6-1c1.3,0,2.7,0.3,4.1,0.9l-1.1,2.7c-1.2-0.6-2.2-0.8-3.1-0.8
		c-0.5,0-0.8,0.1-1,0.2s-0.3,0.4-0.3,0.6c0,0.3,0.1,0.5,0.4,0.7s1,0.6,2.1,1.1c1.1,0.5,1.9,1,2.3,1.6
		C144.3,60.1,144.5,60.8,144.5,61.7z"/>
	<path class="st1" d="M157.5,65.6H154v-5.2h-4v5.2h-3.5V52.7h3.5v4.8h4v-4.8h3.5V65.6z"/>
	<path class="st1" d="M168.1,65.6l-0.6-2.4h-4.2l-0.7,2.4h-3.8l4.2-12.9h4.6l4.2,12.9H168.1z M166.8,60.3l-0.6-2.1
		c-0.1-0.5-0.3-1.1-0.5-1.8c-0.2-0.7-0.3-1.3-0.4-1.6c-0.1,0.3-0.2,0.8-0.3,1.5c-0.2,0.7-0.5,2-1,4.1H166.8z"/>
	<path class="st1" d="M176.8,60.9v4.7h-3.5V52.7h4.2c3.5,0,5.2,1.3,5.2,3.8c0,1.5-0.7,2.6-2.2,3.5l3.7,5.6h-3.9l-2.7-4.7H176.8z
		 M176.8,58.3h0.7c1.2,0,1.8-0.5,1.8-1.6c0-0.9-0.6-1.3-1.8-1.3h-0.7V58.3z"/>
	<path class="st1" d="M193.1,65.6h-7.6V52.7h7.6v2.8H189v2h3.8v2.8H189v2.4h4.2V65.6z"/>
</g>
<path class="st2" d="M36.7,51.8l1.6,4.8c0,0.1,0.1,0.1,0.1,0.1h5.1c0.1,0,0.2,0.2,0.1,0.3l-4.1,2.9c-0.1,0-0.1,0.1-0.1,0.2l1.6,4.8
	c0,0.1-0.1,0.2-0.2,0.2l-4.1-3c0,0-0.1,0-0.2,0l-4.1,3c-0.1,0.1-0.3,0-0.2-0.2l1.6-4.7c0-0.1,0-0.1-0.1-0.2L29.6,57
	c-0.1-0.1-0.1-0.3,0.1-0.3h5.1c0.1,0,0.1,0,0.1-0.1l1.6-4.8C36.5,51.7,36.7,51.7,36.7,51.8z"/>
<path class="st2" d="M205.5,51.8l1.6,4.8c0,0.1,0.1,0.1,0.1,0.1h5.1c0.1,0,0.2,0.2,0.1,0.3l-4.1,2.9c-0.1,0-0.1,0.1-0.1,0.2l1.6,4.8
	c0,0.1-0.1,0.2-0.2,0.2l-4.1-3c0,0-0.1,0-0.2,0l-4.1,3c-0.1,0.1-0.3,0-0.2-0.2l1.6-4.7c0-0.1,0-0.1-0.1-0.2l-4.1-2.9
	c-0.1-0.1-0.1-0.3,0.1-0.3h5.1c0.1,0,0.1,0,0.1-0.1l1.6-4.8C205.2,51.7,205.4,51.7,205.5,51.8z"/>
</svg>
