<?xml version="1.0" encoding="utf-8"?>
<!-- Generator: Adobe Illustrator 19.2.1, SVG Export Plug-In . SVG Version: 6.00 Build 0)  -->
<svg version="1.1" id="Layer_1" xmlns="http://www.w3.org/2000/svg" xmlns:xlink="http://www.w3.org/1999/xlink" x="0px" y="0px"
	 viewBox="0 0 276.8 23.7" style="enable-background:new 0 0 276.8 23.7;" xml:space="preserve">
<style type="text/css">
	.st0{fill:#E11048;}
	.st1{fill:#FDFDFE;}
</style>
<rect x="-10" y="0.2" class="st0" width="300" height="23.7"/>
<g>
	<path class="st1" d="M33.4,18.1h-3.1v-4.7h-3.6v4.7h-3.1V6.7h3.1v4.2h3.6V6.7h3.1V18.1z"/>
	<path class="st1" d="M42.9,18.1L42.3,16h-3.7L38,18.1h-3.4l3.7-11.5h4.1l3.8,11.5H42.9z M41.7,13.4l-0.5-1.9
		c-0.1-0.4-0.3-1-0.4-1.6s-0.3-1.1-0.3-1.4c0,0.3-0.1,0.7-0.3,1.3s-0.4,1.8-0.9,3.6H41.7z"/>
	<path class="st1" d="M55.6,18.1h-8.9v-1.9l4.9-7h-4.8V6.7h8.7v1.9l-4.9,7h5.1V18.1z"/>
	<path class="st1" d="M66.5,9c-0.7,0-1.3,0.3-1.7,0.9s-0.6,1.4-0.6,2.5c0,2.2,0.8,3.3,2.5,3.3c0.5,0,1-0.1,1.5-0.2s1-0.3,1.4-0.5
		v2.6c-1,0.4-2,0.6-3.2,0.6c-1.7,0-3-0.5-4-1.5S61,14.3,61,12.4c0-1.2,0.2-2.2,0.7-3.1s1.1-1.6,1.9-2.1s1.8-0.7,2.9-0.7
		c1.2,0,2.4,0.3,3.5,0.8l-0.9,2.4c-0.4-0.2-0.8-0.4-1.3-0.5S67,9,66.5,9z"/>
	<path class="st1" d="M71.8,18.1V6.7h3.1v8.9h4.4v2.5H71.8z"/>
	<path class="st1" d="M81.1,18.1V6.7h3.1v11.4H81.1z"/>
	<path class="st1" d="M91.8,9C91,9,90.4,9.4,90,10s-0.6,1.4-0.6,2.5c0,2.2,0.8,3.3,2.5,3.3c0.5,0,1-0.1,1.5-0.2s1-0.3,1.4-0.5v2.6
		c-1,0.4-2,0.6-3.2,0.6c-1.7,0-3-0.5-4-1.5s-1.4-2.4-1.4-4.3c0-1.2,0.2-2.2,0.7-3.1s1.1-1.6,1.9-2.1s1.8-0.7,2.9-0.7
		c1.2,0,2.4,0.3,3.5,0.8l-0.9,2.4c-0.4-0.2-0.8-0.4-1.3-0.5S92.2,9,91.8,9z"/>
	<path class="st1" d="M106.8,18.1h-3.5l-2.3-4.4l-0.9,0.5v3.8h-3.1V6.7h3.1v5c0.2-0.3,0.5-0.8,0.9-1.5l2.4-3.5h3.4l-3.6,5.1
		L106.8,18.1z"/>
	<path class="st1" d="M120.5,10.3c0,1.3-0.4,2.3-1.1,3s-1.8,1-3.2,1h-0.9v3.8h-3.1V6.7h4c1.4,0,2.5,0.3,3.2,0.9
		S120.5,9.2,120.5,10.3z M115.3,11.8h0.6c0.5,0,0.8-0.1,1.1-0.4s0.4-0.6,0.4-1.1c0-0.8-0.4-1.2-1.3-1.2h-0.8V11.8z"/>
	<path class="st1" d="M129.3,18.1l-0.6-2.1H125l-0.6,2.1h-3.4l3.7-11.5h4.1l3.8,11.5H129.3z M128.1,13.4l-0.5-1.9
		c-0.1-0.4-0.3-1-0.4-1.6s-0.3-1.1-0.3-1.4c0,0.3-0.1,0.7-0.3,1.3s-0.4,1.8-0.9,3.6H128.1z"/>
	<path class="st1" d="M137,13.9v4.2h-3.1V6.7h3.7c3.1,0,4.7,1.1,4.7,3.4c0,1.3-0.6,2.3-1.9,3.1l3.3,5h-3.5l-2.4-4.2H137z M137,11.6
		h0.6c1.1,0,1.6-0.5,1.6-1.4c0-0.8-0.5-1.2-1.6-1.2H137V11.6z"/>
	<path class="st1" d="M151.8,18.1l-0.6-2.1h-3.7l-0.6,2.1h-3.4l3.7-11.5h4.1l3.8,11.5H151.8z M150.6,13.4l-0.5-1.9
		c-0.1-0.4-0.3-1-0.4-1.6s-0.3-1.1-0.3-1.4c0,0.3-0.1,0.7-0.3,1.3s-0.4,1.8-0.9,3.6H150.6z"/>
	<path class="st1" d="M165.6,9c-0.7,0-1.3,0.3-1.7,0.9s-0.6,1.4-0.6,2.5c0,2.2,0.8,3.3,2.5,3.3c0.5,0,1-0.1,1.5-0.2s1-0.3,1.4-0.5
		v2.6c-1,0.4-2,0.6-3.2,0.6c-1.7,0-3-0.5-4-1.5s-1.4-2.4-1.4-4.3c0-1.2,0.2-2.2,0.7-3.1s1.1-1.6,1.9-2.1s1.8-0.7,2.9-0.7
		c1.2,0,2.4,0.3,3.5,0.8l-0.9,2.4c-0.4-0.2-0.8-0.4-1.3-0.5S166.1,9,165.6,9z"/>
	<path class="st1" d="M181.6,12.4c0,1.9-0.5,3.4-1.4,4.4s-2.3,1.5-4.1,1.5c-1.8,0-3.2-0.5-4.1-1.5s-1.4-2.5-1.4-4.4
		c0-1.9,0.5-3.4,1.4-4.4s2.3-1.5,4.1-1.5c1.8,0,3.2,0.5,4.1,1.5S181.6,10.5,181.6,12.4z M173.7,12.4c0,2.2,0.8,3.3,2.3,3.3
		c0.8,0,1.4-0.3,1.7-0.8s0.6-1.4,0.6-2.5c0-1.1-0.2-2-0.6-2.5s-1-0.8-1.7-0.8C174.5,9,173.7,10.1,173.7,12.4z"/>
	<path class="st1" d="M188.6,18.1l-2.3-8.2h-0.1c0.1,1.4,0.2,2.5,0.2,3.3v5h-2.7V6.7h4.1l2.4,8.1h0.1l2.3-8.1h4.1v11.4h-2.8v-5
		c0-0.3,0-0.5,0-0.9s0-1.1,0.1-2.3h-0.1l-2.3,8.2H188.6z"/>
	<path class="st1" d="M207.4,10.3c0,1.3-0.4,2.3-1.1,3s-1.8,1-3.2,1h-0.9v3.8h-3.1V6.7h4c1.4,0,2.5,0.3,3.2,0.9
		S207.4,9.2,207.4,10.3z M202.2,11.8h0.6c0.5,0,0.8-0.1,1.1-0.4s0.4-0.6,0.4-1.1c0-0.8-0.4-1.2-1.3-1.2h-0.8V11.8z"/>
	<path class="st1" d="M216.2,18.1l-0.6-2.1H212l-0.6,2.1H208l3.7-11.5h4.1l3.8,11.5H216.2z M215,13.4l-0.5-1.9
		c-0.1-0.4-0.3-1-0.4-1.6s-0.3-1.1-0.3-1.4c0,0.3-0.1,0.7-0.3,1.3s-0.4,1.8-0.9,3.6H215z"/>
	<path class="st1" d="M223.9,13.9v4.2h-3.1V6.7h3.7c3.1,0,4.7,1.1,4.7,3.4c0,1.3-0.6,2.3-1.9,3.1l3.3,5h-3.5l-2.4-4.2H223.9z
		 M223.9,11.6h0.6c1.1,0,1.6-0.5,1.6-1.4c0-0.8-0.5-1.2-1.6-1.2h-0.6V11.6z"/>
	<path class="st1" d="M236.7,18.1h-3.1V9.2h-2.8V6.7h8.7v2.5h-2.8V18.1z"/>
	<path class="st1" d="M241.1,18.1V6.7h3.1v11.4H241.1z"/>
	<path class="st1" d="M249.8,13.9v4.2h-3.1V6.7h3.7c3.1,0,4.7,1.1,4.7,3.4c0,1.3-0.6,2.3-1.9,3.1l3.3,5H253l-2.4-4.2H249.8z
		 M249.8,11.6h0.6c1.1,0,1.6-0.5,1.6-1.4c0-0.8-0.5-1.2-1.6-1.2h-0.6V11.6z"/>
</g>
</svg>
