<?xml version="1.0" encoding="utf-8"?>
<!-- Generator: Adobe Illustrator 19.1.0, SVG Export Plug-In . SVG Version: 6.00 Build 0)  -->
<svg version="1.1" id="Layer_1" xmlns="http://www.w3.org/2000/svg" xmlns:xlink="http://www.w3.org/1999/xlink" x="0px" y="0px"
	 viewBox="111.6 39.3 276.8 23.7" style="enable-background:new 111.6 39.3 276.8 23.7;" xml:space="preserve">
<style type="text/css">
	.st0{fill:#E11048;}
	.st1{fill:#FDFDFE;}
	.st2{fill:#FEFEFE;}
</style>
<g>
	<rect x="100" y="39.3" class="st0" width="300" height="23.7"/>
	<g>
		<path class="st1" d="M184,47.4c-0.8,0-1.5,0.3-1.9,1c-0.5,0.7-0.7,1.6-0.7,2.8c0,2.5,0.9,3.7,2.8,3.7c0.6,0,1.1-0.1,1.7-0.2
			s1.1-0.3,1.6-0.6V57c-1.1,0.5-2.3,0.7-3.6,0.7c-1.9,0-3.4-0.6-4.5-1.7c-1-1.1-1.6-2.8-1.6-4.9c0-1.3,0.2-2.5,0.8-3.5
			c0.5-1,1.2-1.8,2.2-2.3c0.9-0.5,2-0.8,3.3-0.8c1.4,0,2.7,0.3,4,0.9l-1.1,2.8c-0.5-0.2-0.9-0.4-1.4-0.6S184.6,47.4,184,47.4z"/>
		<path class="st1" d="M190,57.6V44.7h3.5v10h4.9v2.8L190,57.6L190,57.6z"/>
		<path class="st1" d="M200.4,57.6V44.7h3.5v12.8L200.4,57.6L200.4,57.6z"/>
		<path class="st1" d="M212.4,47.4c-0.8,0-1.5,0.3-1.9,1c-0.5,0.7-0.7,1.6-0.7,2.8c0,2.5,0.9,3.7,2.8,3.7c0.6,0,1.1-0.1,1.7-0.2
			c0.6-0.1,1.1-0.3,1.6-0.6V57c-1.1,0.5-2.3,0.7-3.6,0.7c-1.9,0-3.4-0.6-4.5-1.7c-1-1.1-1.6-2.8-1.6-4.9c0-1.3,0.2-2.5,0.8-3.5
			c0.5-1,1.2-1.8,2.2-2.3c0.9-0.5,2-0.8,3.3-0.8c1.4,0,2.7,0.3,4,0.9l-1.1,2.7c-0.5-0.2-0.9-0.4-1.4-0.6S213,47.4,212.4,47.4z"/>
		<path class="st1" d="M229.4,57.6h-3.9l-2.5-4.9l-1,0.6v4.3h-3.5V44.7h3.5v5.6c0.2-0.3,0.5-0.9,1.1-1.6l2.7-3.9h3.8l-4.1,5.8
			L229.4,57.6z"/>
		<path class="st1" d="M241.1,57.6h-3.5v-10h-3.1v-2.8h9.7v2.8h-3.1V57.6z"/>
		<path class="st1" d="M258.1,51.1c0,2.2-0.5,3.8-1.6,4.9c-1.1,1.1-2.6,1.7-4.7,1.7c-2,0-3.6-0.6-4.6-1.7c-1.1-1.1-1.6-2.8-1.6-4.9
			c0-2.1,0.5-3.8,1.6-4.9c1.1-1.1,2.6-1.7,4.7-1.7c2,0,3.6,0.6,4.6,1.7S258.1,49,258.1,51.1z M249.2,51.1c0,2.5,0.9,3.7,2.6,3.7
			c0.9,0,1.5-0.3,2-0.9c0.4-0.6,0.6-1.5,0.6-2.8s-0.2-2.2-0.6-2.8c-0.4-0.6-1.1-0.9-1.9-0.9C250.1,47.4,249.2,48.6,249.2,51.1z"/>
		<path class="st1" d="M273.5,53.7c0,0.8-0.2,1.5-0.6,2.1c-0.4,0.6-1,1.1-1.7,1.4c-0.8,0.3-1.7,0.5-2.7,0.5c-0.9,0-1.6-0.1-2.2-0.2
			s-1.2-0.3-1.8-0.6v-3.1c0.7,0.3,1.4,0.6,2.1,0.8c0.7,0.2,1.4,0.3,2,0.3c0.5,0,0.9-0.1,1.1-0.3c0.2-0.2,0.4-0.4,0.4-0.7
			c0-0.2,0-0.3-0.1-0.5c-0.1-0.1-0.3-0.3-0.5-0.4c-0.2-0.1-0.8-0.4-1.7-0.8c-0.8-0.4-1.5-0.8-1.9-1.1s-0.7-0.8-0.9-1.2
			c-0.2-0.5-0.3-1-0.3-1.6c0-1.2,0.4-2.1,1.3-2.8c0.9-0.7,2-1,3.6-1c1.3,0,2.7,0.3,4.1,0.9l-1.1,2.7c-1.2-0.6-2.2-0.8-3.1-0.8
			c-0.5,0-0.8,0.1-1,0.2c-0.2,0.1-0.3,0.4-0.3,0.6c0,0.3,0.1,0.5,0.4,0.7s1,0.6,2.1,1.1s1.9,1,2.3,1.6
			C273.3,52.1,273.5,52.8,273.5,53.7z"/>
		<path class="st1" d="M286.5,57.6H283v-5.2h-4v5.2h-3.5V44.7h3.5v4.8h4v-4.8h3.5V57.6z"/>
		<path class="st1" d="M297.1,57.6l-0.6-2.4h-4.2l-0.7,2.4h-3.8l4.2-12.9h4.6l4.2,12.9H297.1z M295.8,52.3l-0.6-2.1
			c-0.1-0.5-0.3-1.1-0.5-1.8c-0.2-0.7-0.3-1.3-0.4-1.6c-0.1,0.3-0.2,0.8-0.3,1.5c-0.2,0.7-0.5,2-1,4.1h2.8V52.3z"/>
		<path class="st1" d="M305.8,52.9v4.7h-3.5V44.7h4.2c3.5,0,5.2,1.3,5.2,3.8c0,1.5-0.7,2.6-2.2,3.5l3.7,5.6h-3.9l-2.7-4.7
			C306.6,52.9,305.8,52.9,305.8,52.9z M305.8,50.3h0.7c1.2,0,1.8-0.5,1.8-1.6c0-0.9-0.6-1.3-1.8-1.3h-0.7V50.3z"/>
		<path class="st1" d="M322.1,57.6h-7.6V44.7h7.6v2.8H318v2h3.8v2.8H318v2.4h4.2L322.1,57.6L322.1,57.6z"/>
	</g>
	<path class="st2" d="M165.7,43.8l1.6,4.8c0,0.1,0.1,0.1,0.1,0.1h5.1c0.1,0,0.2,0.2,0.1,0.3l-4.1,2.9c-0.1,0-0.1,0.1-0.1,0.2
		l1.6,4.8c0,0.1-0.1,0.2-0.2,0.2l-4.1-3c0,0-0.1,0-0.2,0l-4.1,3c-0.1,0.1-0.3,0-0.2-0.2l1.6-4.7c0-0.1,0-0.1-0.1-0.2l-4.1-3
		c-0.1-0.1-0.1-0.3,0.1-0.3h5.1c0.1,0,0.1,0,0.1-0.1l1.6-4.8C165.5,43.7,165.7,43.7,165.7,43.8z"/>
	<path class="st2" d="M334.5,43.8l1.6,4.8c0,0.1,0.1,0.1,0.1,0.1h5.1c0.1,0,0.2,0.2,0.1,0.3l-4.1,2.9c-0.1,0-0.1,0.1-0.1,0.2
		l1.6,4.8c0,0.1-0.1,0.2-0.2,0.2l-4.1-3c0,0-0.1,0-0.2,0l-4.1,3c-0.1,0.1-0.3,0-0.2-0.2l1.6-4.7c0-0.1,0-0.1-0.1-0.2l-4.1-2.9
		c-0.1-0.1-0.1-0.3,0.1-0.3h5.1c0.1,0,0.1,0,0.1-0.1l1.6-4.8C334.2,43.7,334.4,43.7,334.5,43.8z"/>
</g>
</svg>
