<?xml version="1.0" encoding="utf-8"?>
<!-- Generator: Adobe Illustrator 19.1.0, SVG Export Plug-In . SVG Version: 6.00 Build 0)  -->
<svg version="1.1" baseProfile="tiny" id="Layer_1" xmlns="http://www.w3.org/2000/svg" xmlns:xlink="http://www.w3.org/1999/xlink"
	 x="0px" y="0px" viewBox="0 0 60 60" xml:space="preserve">
<path fill="#242630" d="M30,4.4C15.8,4.4,4.4,15.9,4.4,30c0,14.2,11.5,25.6,25.6,25.6S55.6,44.2,55.6,30C55.6,15.9,44.2,4.4,30,4.4z
	 M36.8,29.9h-4.4c0,7.1,0,15.8,0,15.8h-6.6c0,0,0-8.6,0-15.8h-3.1v-5.6h3.1v-3.6c0-2.6,1.2-6.6,6.6-6.6l4.9,0v5.4c0,0-3,0-3.5,0
	c-0.6,0-1.4,0.3-1.4,1.5v3.3h5L36.8,29.9z"/>
</svg>
