<?xml version="1.0" encoding="utf-8"?>
<!-- Generator: Adobe Illustrator 19.1.0, SVG Export Plug-In . SVG Version: 6.00 Build 0)  -->
<svg version="1.1" baseProfile="tiny" id="Layer_1" xmlns="http://www.w3.org/2000/svg" xmlns:xlink="http://www.w3.org/1999/xlink"
	 x="0px" y="0px" viewBox="0 0 60 60" xml:space="preserve">
<g>
	<path fill="#242630" d="M43.9,19.4c-0.3-0.8-0.7-1.4-1.3-2c-0.6-0.6-1.2-1-2-1.3c-0.6-0.2-1.6-0.5-3.3-0.6
		c-1.9-0.1-2.4-0.1-7.2-0.1s-5.3,0-7.2,0.1c-1.7,0.1-2.7,0.4-3.3,0.6c-0.8,0.3-1.4,0.7-2,1.3c-0.6,0.6-1,1.2-1.3,2
		c-0.2,0.6-0.5,1.6-0.6,3.3c-0.1,1.9-0.1,2.4-0.1,7.2c0,4.8,0,5.3,0.1,7.2c0.1,1.7,0.4,2.7,0.6,3.3c0.3,0.8,0.7,1.4,1.3,2
		c0.6,0.6,1.2,1,2,1.3c0.6,0.2,1.6,0.5,3.3,0.6c1.9,0.1,2.4,0.1,7.2,0.1s5.3,0,7.2-0.1c1.7-0.1,2.7-0.4,3.3-0.6
		c0.8-0.3,1.4-0.7,2-1.3c0.6-0.6,1-1.2,1.3-2c0.2-0.6,0.5-1.6,0.6-3.3c0.1-1.9,0.1-2.4,0.1-7.2c0-4.8,0-5.3-0.1-7.2
		C44.4,21,44.1,20,43.9,19.4z M30,39c-5,0-9.1-4.1-9.1-9.1c0-5,4.1-9.1,9.1-9.1s9.1,4.1,9.1,9.1C39.1,34.9,35,39,30,39z M39.5,22.5
		c-1.2,0-2.1-1-2.1-2.1c0-1.2,1-2.1,2.1-2.1c1.2,0,2.1,1,2.1,2.1C41.6,21.6,40.7,22.5,39.5,22.5z"/>
	<circle fill="#242630" cx="30" cy="29.9" r="5.9"/>
	<path fill="#242630" d="M30,4.4C15.8,4.4,4.4,15.9,4.4,30c0,14.2,11.5,25.6,25.6,25.6S55.6,44.2,55.6,30C55.6,15.9,44.2,4.4,30,4.4
		z M47.7,37.2c-0.1,1.9-0.4,3.2-0.8,4.3c-0.5,1.2-1.1,2.2-2.1,3.2c-1,1-2,1.6-3.2,2.1c-1.1,0.4-2.4,0.7-4.3,0.8
		c-1.9,0.1-2.5,0.1-7.3,0.1s-5.4,0-7.3-0.1c-1.9-0.1-3.2-0.4-4.3-0.8c-1.2-0.5-2.2-1.1-3.2-2.1c-1-1-1.6-2-2.1-3.2
		c-0.4-1.1-0.7-2.4-0.8-4.3c-0.1-1.9-0.1-2.5-0.1-7.3c0-4.8,0-5.4,0.1-7.3c0.1-1.9,0.4-3.2,0.8-4.3c0.5-1.2,1.1-2.2,2.1-3.2
		c1-1,2-1.6,3.2-2.1c1.1-0.4,2.4-0.7,4.3-0.8c1.9-0.1,2.5-0.1,7.3-0.1s5.4,0,7.3,0.1c1.9,0.1,3.2,0.4,4.3,0.8
		c1.2,0.5,2.2,1.1,3.2,2.1c1,1,1.6,2,2.1,3.2c0.4,1.1,0.7,2.4,0.8,4.3c0.1,1.9,0.1,2.5,0.1,7.3C47.8,34.7,47.8,35.3,47.7,37.2z"/>
</g>
</svg>
