<?xml version="1.0" encoding="utf-8"?>
<!-- Generator: Adobe Illustrator 18.1.1, SVG Export Plug-In . SVG Version: 6.00 Build 0)  -->
<svg version="1.1" id="Layer_1" xmlns="http://www.w3.org/2000/svg" xmlns:xlink="http://www.w3.org/1999/xlink" x="0px" y="0px"
	 viewBox="0 292.2 1920 515.8" enable-background="new 0 292.2 1920 515.8" xml:space="preserve">
<g>
	<path fill="#FFFFFF" d="M216.6,618.1h-73.4l-113.6-316h88.3l45.7,142.6c5.6,17.9,14.8,50.6,18.5,72.8h1.9
		c3.7-23.5,12.3-54.3,18.5-73.4l45.7-141.9h85.8L216.6,618.1z"/>
	<path fill="#FFFFFF" d="M503.6,292.2c104.3,0,166,80.2,166,167.9c0,91.3-71,167.9-167.3,167.9c-116,0-167.3-90.1-167.3-167.9
		C335.1,370.6,405.5,292.2,503.6,292.2z M501.8,553.9c47.5,0,83.3-40.7,83.3-93.2c0-51.8-32.1-93.2-82.1-93.2
		c-46.9,0-83.9,40.1-83.9,93.2C419.1,513.2,454.9,553.9,501.8,553.9z"/>
	<path fill="#FFFFFF" d="M751.7,373.1h-71v-71h224.6v71h-71v245h-83.3L751.7,373.1L751.7,373.1z"/>
	<path fill="#FFFFFF" d="M1135,373.1h-115.4v48.8h111.1v66h-111.1v58.6h119.7v71H936.9V302.1H1135V373.1z"/>
	<path fill="#FFFFFF" d="M1505.9,437.2v21.6c0,70.4-42.6,167.3-162.3,167.3c-96.3,0-164.8-70.4-164.8-163.5
		c0-101.2,69.7-169.1,164.2-169.1c74.7,0,132.1,35.8,154.3,102.4h-89.5c-13-22.2-35.8-32.1-61.7-32.1c-40.7,0-83.3,30.9-83.3,98.1
		c0,60.5,34.6,95.7,87,95.7c36.4,0,63-24.7,67.9-53.1h-90.7v-67.3H1505.9z"/>
	<path fill="#FFFFFF" d="M1549.7,302.1h82.7v315.4h-82.7V302.1z"/>
	<path fill="#FFFFFF" d="M1890.4,373.1H1775v58h110.5v66H1775v120.3h-83.3V302.1h198.7L1890.4,373.1L1890.4,373.1z"/>
</g>
<text transform="matrix(1 0 0 1 186.7587 782.9204)" fill="#242630" font-family="'OpenSans-Extrabold'" font-size="130">2018 MIDTERM EDITION</text>
</svg>
