<?xml version="1.0" encoding="utf-8"?>
<!-- Generator: Adobe Illustrator 19.1.0, SVG Export Plug-In . SVG Version: 6.00 Build 0)  -->
<svg version="1.1" baseProfile="tiny" id="Layer_1" xmlns="http://www.w3.org/2000/svg" xmlns:xlink="http://www.w3.org/1999/xlink"
	 x="0px" y="0px" viewBox="0 0 311.1 68.4" xml:space="preserve">
<g>
	<path fill="#FFFFFF" d="M35.1,59.8H23.2L4.8,8.6h14.3l7.4,23.1c0.9,2.9,2.4,8.2,3,11.8h0.3c0.6-3.8,2-8.8,3-11.9l7.4-23h13.9
		L35.1,59.8z"/>
	<path fill="#FFFFFF" d="M81.6,7c16.9,0,26.9,13,26.9,27.2c0,14.8-11.5,27.2-27.1,27.2c-18.8,0-27.1-14.6-27.1-27.2
		C54.3,19.7,65.7,7,81.6,7z M81.3,49.4c7.7,0,13.5-6.6,13.5-15.1c0-8.4-5.2-15.1-13.3-15.1c-7.6,0-13.6,6.5-13.6,15.1
		C67.9,42.8,73.7,49.4,81.3,49.4z"/>
	<path fill="#FFFFFF" d="M121.8,20.1h-11.5V8.6h36.4v11.5h-11.5v39.7h-13.5V20.1z"/>
	<path fill="#FFFFFF" d="M183.9,20.1h-18.7v7.9h18v10.7h-18v9.5h19.4v11.5h-32.8V8.6h32.1V20.1z"/>
	<path fill="#FFFFFF" d="M244,30.5v3.5c0,11.4-6.9,27.1-26.3,27.1c-15.6,0-26.7-11.4-26.7-26.5c0-16.4,11.3-27.4,26.6-27.4
		c12.1,0,21.4,5.8,25,16.6h-14.5c-2.1-3.6-5.8-5.2-10-5.2c-6.6,0-13.5,5-13.5,15.9c0,9.8,5.6,15.5,14.1,15.5c5.9,0,10.2-4,11-8.6
		H215V30.5H244z"/>
	<path fill="#FFFFFF" d="M251.1,8.6h13.4v51.1h-13.4V8.6z"/>
	<path fill="#FFFFFF" d="M306.3,20.1h-18.7v9.4h17.9v10.7h-17.9v19.5h-13.5V8.6h32.2V20.1z"/>
</g>
</svg>
