<?xml version="1.0" encoding="utf-8"?>
<!-- Generator: Adobe Illustrator 18.1.1, SVG Export Plug-In . SVG Version: 6.00 Build 0)  -->
<svg version="1.1" id="Layer_1" xmlns="http://www.w3.org/2000/svg" xmlns:xlink="http://www.w3.org/1999/xlink" x="0px" y="0px"
	 viewBox="0 292.2 1920 515.8" enable-background="new 0 292.2 1920 515.8" xml:space="preserve">
<g>
	<path fill="#FFFFFF" d="M216.6,618.1h-73.4l-113.6-316h88.3l45.7,142.6c5.6,17.9,14.8,50.6,18.5,72.8h1.9
		c3.7-23.5,12.3-54.3,18.5-73.4l45.7-141.9h85.8L216.6,618.1z"/>
	<path fill="#FFFFFF" d="M503.6,292.2c104.3,0,166,80.2,166,167.9c0,91.3-71,167.9-167.3,167.9c-116,0-167.3-90.1-167.3-167.9
		C335.1,370.6,405.5,292.2,503.6,292.2z M501.8,553.9c47.5,0,83.3-40.7,83.3-93.2c0-51.8-32.1-93.2-82.1-93.2
		c-46.9,0-83.9,40.1-83.9,93.2C419.1,513.2,454.9,553.9,501.8,553.9z"/>
	<path fill="#FFFFFF" d="M751.7,373.1h-71v-71h224.6v71h-71v245h-83.3L751.7,373.1L751.7,373.1z"/>
	<path fill="#FFFFFF" d="M1135,373.1h-115.4v48.8h111.1v66h-111.1v58.6h119.7v71H936.9V302.1H1135V373.1z"/>
	<path fill="#FFFFFF" d="M1505.9,437.2v21.6c0,70.4-42.6,167.3-162.3,167.3c-96.3,0-164.8-70.4-164.8-163.5
		c0-101.2,69.7-169.1,164.2-169.1c74.7,0,132.1,35.8,154.3,102.4h-89.5c-13-22.2-35.8-32.1-61.7-32.1c-40.7,0-83.3,30.9-83.3,98.1
		c0,60.5,34.6,95.7,87,95.7c36.4,0,63-24.7,67.9-53.1h-90.7v-67.3H1505.9z"/>
	<path fill="#FFFFFF" d="M1549.7,302.1h82.7v315.4h-82.7V302.1z"/>
	<path fill="#FFFFFF" d="M1890.4,373.1H1775v58h110.5v66H1775v120.3h-83.3V302.1h198.7L1890.4,373.1L1890.4,373.1z"/>
</g>
<g enable-background="new    ">
	<path fill="#242630" d="M258,782.9h-67.3v-16.5l22.7-22.9c6.5-6.8,10.7-11.4,12.7-13.9c2-2.5,3.4-4.6,4.2-6.4
		c0.8-1.8,1.2-3.6,1.2-5.6c0-2.4-0.8-4.3-2.3-5.7c-1.6-1.4-3.8-2.1-6.6-2.1c-2.9,0-5.9,0.8-8.9,2.5c-3,1.7-6.4,4.1-10.1,7.4
		l-13.8-16.1c4.8-4.3,8.8-7.3,12.1-9.2c3.3-1.8,6.8-3.2,10.6-4.2c3.8-1,8.1-1.5,12.9-1.5c6,0,11.4,1.1,16.1,3.2
		c4.7,2.1,8.4,5.1,11,9s3.9,8.3,3.9,13.2c0,3.6-0.5,7-1.4,10.1c-0.9,3.1-2.3,6.1-4.2,9.1c-1.9,3-4.4,6.1-7.6,9.4
		c-3.2,3.3-9.9,9.6-20.2,18.8v0.6H258V782.9z"/>
	<path fill="#242630" d="M334.5,736.6c0,16.4-2.8,28.4-8.3,36.1c-5.5,7.6-13.9,11.5-25.3,11.5c-11.1,0-19.4-4-25.1-12
		c-5.6-8-8.4-19.8-8.4-35.6c0-16.5,2.8-28.6,8.3-36.3c5.5-7.7,13.9-11.6,25.3-11.6c11,0,19.4,4,25,12
		C331.7,708.8,334.5,720.8,334.5,736.6z M292.4,736.6c0,10.5,0.7,17.7,2,21.6c1.3,3.9,3.5,5.9,6.6,5.9c3.1,0,5.3-2,6.6-6.1
		c1.3-4.1,1.9-11.2,1.9-21.5c0-10.3-0.7-17.5-2-21.6c-1.3-4.1-3.5-6.2-6.6-6.2c-3.1,0-5.3,2-6.6,6
		C293.1,718.8,292.4,726.1,292.4,736.6z"/>
	<path fill="#242630" d="M398.9,782.9h-25.5v-49.1c0-6,0.1-11.4,0.4-16.4c-1.6,1.9-3.5,3.9-5.8,6l-10.5,8.7l-13-16l31.9-26h22.6
		V782.9z"/>
	<path fill="#242630" d="M453.6,688.8c9.8,0,17.4,2,22.8,5.9c5.4,3.9,8.2,9.5,8.2,16.8c0,4.9-1.3,9.2-3.8,12.9
		c-2.6,3.7-6.6,6.9-12.2,9.7c6.9,3.9,11.7,7.8,14.5,11.6c2.8,3.9,4.2,8.1,4.2,12.5c0,8.3-3,14.6-9,19.2c-6,4.5-14.3,6.8-25,6.8
		c-10.9,0-19.3-2.2-25.1-6.6c-5.8-4.4-8.7-10.8-8.7-19.1c0-5.4,1.3-10,3.9-13.7c2.6-3.8,6.9-7.2,13-10.3c-4.9-3.3-8.5-6.8-10.8-10.6
		c-2.3-3.8-3.4-7.9-3.4-12.5c0-7.1,2.8-12.6,8.3-16.6C436.2,690.8,443.8,688.8,453.6,688.8z M442.6,757.5c0,2.6,0.9,4.7,2.8,6.3
		c1.9,1.6,4.4,2.4,7.7,2.4c7.4,0,11.2-2.7,11.2-8.2c0-2.1-0.8-4.1-2.4-6.1c-1.6-2-4.5-4.3-8.7-6.8c-3.8,2-6.5,4-8.1,6
		C443.4,753.1,442.6,755.2,442.6,757.5z M453.5,706.9c-2.2,0-4,0.6-5.5,1.9c-1.5,1.2-2.2,2.9-2.2,4.9c0,3.6,2.5,6.9,7.4,9.6
		c3-1.7,5.1-3.3,6.2-4.8c1.1-1.4,1.7-3.1,1.7-4.9c0-2-0.7-3.7-2.2-4.9C457.3,707.5,455.6,706.9,453.5,706.9z"/>
	<path fill="#242630" d="M575.7,782.9l-19-66.8h-0.6c0.9,11.4,1.3,20.2,1.3,26.5v40.3h-22.2v-92.8h33.4L588,756h0.5l19-65.9h33.5
		v92.8h-23v-40.7c0-2.1,0-4.5,0.1-7c0.1-2.6,0.3-8.9,0.9-19h-0.6l-18.7,66.7H575.7z"/>
	<path fill="#242630" d="M660.9,782.9v-92.8h25.2v92.8H660.9z"/>
	<path fill="#242630" d="M785,734.6c0,15.5-4.3,27.4-12.8,35.8c-8.5,8.4-20.5,12.6-36,12.6h-30v-92.8h32.1
		c14.9,0,26.4,3.8,34.5,11.4C780.9,709.2,785,720.2,785,734.6z M758.9,735.4c0-8.5-1.7-14.8-5-18.9c-3.4-4.1-8.5-6.2-15.3-6.2h-7.3
		v52h5.6c7.6,0,13.2-2.2,16.8-6.6S758.9,744.5,758.9,735.4z"/>
	<path fill="#242630" d="M842.5,782.9h-25.1v-72.3h-22.7v-20.5h70.3v20.5h-22.6V782.9z"/>
	<path fill="#242630" d="M933.5,782.9h-55.1v-92.8h55.1v20.1h-30v14.6h27.8V745h-27.8v17.5h30V782.9z"/>
	<path fill="#242630" d="M974.8,749.2v33.8h-25.1v-92.8h30.4c25.2,0,37.8,9.1,37.8,27.4c0,10.7-5.2,19.1-15.7,24.9l27,40.4h-28.4
		l-19.7-33.8H974.8z M974.8,730.3h4.7c8.8,0,13.1-3.9,13.1-11.6c0-6.4-4.3-9.6-12.9-9.6h-5V730.3z"/>
	<path fill="#242630" d="M1078.2,782.9l-19-66.8h-0.6c0.9,11.4,1.3,20.2,1.3,26.5v40.3h-22.2v-92.8h33.4l19.4,65.9h0.5l19-65.9h33.5
		v92.8h-23v-40.7c0-2.1,0-4.5,0.1-7c0.1-2.6,0.3-8.9,0.9-19h-0.6l-18.7,66.7H1078.2z"/>
	<path fill="#242630" d="M1252.3,782.9h-55.1v-92.8h55.1v20.1h-30v14.6h27.8V745h-27.8v17.5h30V782.9z"/>
	<path fill="#242630" d="M1347.3,734.6c0,15.5-4.3,27.4-12.8,35.8c-8.5,8.4-20.5,12.6-36,12.6h-30v-92.8h32.1
		c14.9,0,26.4,3.8,34.5,11.4C1343.2,709.2,1347.3,720.2,1347.3,734.6z M1321.3,735.4c0-8.5-1.7-14.8-5-18.9
		c-3.4-4.1-8.5-6.2-15.3-6.2h-7.3v52h5.6c7.6,0,13.2-2.2,16.8-6.6S1321.3,744.5,1321.3,735.4z"/>
	<path fill="#242630" d="M1363.9,782.9v-92.8h25.2v92.8H1363.9z"/>
	<path fill="#242630" d="M1450.1,782.9h-25.1v-72.3h-22.7v-20.5h70.3v20.5h-22.6V782.9z"/>
	<path fill="#242630" d="M1486,782.9v-92.8h25.2v92.8H1486z"/>
	<path fill="#242630" d="M1618.1,736.4c0,15.6-3.8,27.5-11.5,35.6c-7.7,8.1-18.9,12.2-33.6,12.2c-14.6,0-25.7-4.1-33.5-12.3
		c-7.8-8.2-11.6-20.1-11.6-35.7c0-15.4,3.9-27.2,11.6-35.4s18.9-12.2,33.7-12.2c14.8,0,26,4,33.6,12.1
		C1614.3,708.9,1618.1,720.7,1618.1,736.4z M1554.2,736.4c0,17.9,6.2,26.9,18.7,26.9c6.3,0,11.1-2.2,14.1-6.5
		c3.1-4.4,4.6-11.2,4.6-20.4c0-9.3-1.6-16.1-4.7-20.5c-3.1-4.4-7.8-6.6-13.9-6.6C1560.5,709.2,1554.2,718.3,1554.2,736.4z"/>
	<path fill="#242630" d="M1723.2,782.9h-32.9l-33.9-65.4h-0.6c0.8,10.3,1.2,18.1,1.2,23.5v41.8h-22.2v-92.8h32.8l33.8,64.5h0.4
		c-0.6-9.4-0.9-16.9-0.9-22.5v-42h22.3V782.9z"/>
</g>
</svg>
