<?xml version="1.0" encoding="utf-8"?>
<!-- Generator: Adobe Illustrator 21.1.0, SVG Export Plug-In . SVG Version: 6.00 Build 0)  -->
<svg version="1.1" id="Layer_1" xmlns="http://www.w3.org/2000/svg" xmlns:xlink="http://www.w3.org/1999/xlink" x="0px" y="0px"
	 viewBox="0 0 311.1 94.3" style="enable-background:new 0 0 311.1 94.3;" xml:space="preserve">
<style type="text/css">
	.st0{fill:#FFFFFF;}
	.st1{fill:#E11048;}
	.st2{font-family:'OpenSans-Extrabold';}
	.st3{font-size:19.5147px;}
</style>
<g>
	<path class="st0" d="M35.6,59.8H23.7L5.3,8.6h14.3L27,31.7c0.9,2.9,2.4,8.2,3,11.8h0.3c0.6-3.8,2-8.8,3-11.9l7.4-23h13.9L35.6,59.8
		z"/>
	<path class="st0" d="M82.1,7C99,7,109,20,109,34.2c0,14.8-11.5,27.2-27.1,27.2c-18.8,0-27.1-14.6-27.1-27.2
		C54.8,19.7,66.2,7,82.1,7z M81.8,49.4c7.7,0,13.5-6.6,13.5-15.1c0-8.4-5.2-15.1-13.3-15.1c-7.6,0-13.6,6.5-13.6,15.1
		C68.4,42.8,74.2,49.4,81.8,49.4z"/>
	<path class="st0" d="M122.3,20.1h-11.5V8.6h36.4v11.5h-11.5v39.7h-13.5L122.3,20.1L122.3,20.1z"/>
	<path class="st0" d="M184.4,20.1h-18.7V28h18v10.7h-18v9.5h19.4v11.5h-32.8V8.6h32.1V20.1z"/>
	<path class="st0" d="M244.5,30.5V34c0,11.4-6.9,27.1-26.3,27.1c-15.6,0-26.7-11.4-26.7-26.5c0-16.4,11.3-27.4,26.6-27.4
		c12.1,0,21.4,5.8,25,16.6h-14.5c-2.1-3.6-5.8-5.2-10-5.2c-6.6,0-13.5,5-13.5,15.9c0,9.8,5.6,15.5,14.1,15.5c5.9,0,10.2-4,11-8.6
		h-14.7V30.5H244.5z"/>
	<path class="st0" d="M251.6,8.6H265v51.1h-13.4V8.6z"/>
	<path class="st0" d="M306.8,20.1h-18.7v9.4H306v10.7h-17.9v19.5h-13.5V8.6h32.2V20.1z"/>
</g>
<text transform="matrix(1 0 0 1 39.9869 87.1592)" class="st1 st2 st3">2018 MIDTERM EDITION</text>
</svg>
