<?xml version="1.0" encoding="utf-8"?>
<!-- Generator: Adobe Illustrator 19.1.0, SVG Export Plug-In . SVG Version: 6.00 Build 0)  -->
<svg version="1.1" baseProfile="tiny" id="Layer_1" xmlns="http://www.w3.org/2000/svg" xmlns:xlink="http://www.w3.org/1999/xlink"
	 x="0px" y="0px" viewBox="0 0 60 60" xml:space="preserve">
<path fill="#242630" d="M30,4.4C15.8,4.4,4.4,15.8,4.4,30c0,14.2,11.5,25.6,25.6,25.6S55.6,44.2,55.6,30C55.6,15.8,44.2,4.4,30,4.4z
	 M38.9,44.2c-1.4,0.6-2.6,1.1-3.7,1.4c-1.1,0.3-2.3,0.4-3.6,0.4c-1.5,0-2.3-0.2-3.5-0.6C27,45,26,44.5,25.2,43.8
	c-0.8-0.7-1.4-1.4-1.7-2.2c-0.3-0.8-0.5-1.9-0.5-3.4V26.9h-4.4v-4.6c1.3-0.4,2.7-1,3.6-1.8c0.9-0.8,1.6-1.7,2.2-2.8
	c0.5-1.1,0.9-2.4,1.1-4.1h4.6v7.5h7.5v5.8h-7.5v8.3c0,1.9,0,3,0.2,3.5c0.2,0.5,0.7,1.1,1.2,1.4c0.7,0.4,1.5,0.6,2.4,0.6
	c1.6,0,3.3-0.5,4.9-1.6V44.2z"/>
</svg>
