<?xml version="1.0" encoding="utf-8"?>
<!-- Generator: Adobe Illustrator 19.1.0, SVG Export Plug-In . SVG Version: 6.00 Build 0)  -->
<svg version="1.1" baseProfile="tiny" id="Layer_1" xmlns="http://www.w3.org/2000/svg" xmlns:xlink="http://www.w3.org/1999/xlink"
	 x="0px" y="0px" viewBox="0 0 60 60" xml:space="preserve">
<path fill="#242630" d="M30,4.4C15.9,4.4,4.4,15.9,4.4,30c0,14.2,11.5,25.6,25.6,25.6c14.2,0,25.6-11.5,25.6-25.6
	C55.6,15.9,44.2,4.4,30,4.4z M42.9,24.8c0,0.3,0,0.6,0,0.8c0,8.5-6.5,18.4-18.4,18.4c-3.6,0-7-1.1-9.9-2.9c0.5,0.1,1,0.1,1.5,0.1
	c3,0,5.8-1,8-2.8c-2.8-0.1-5.2-1.9-6-4.5c0.4,0.1,0.8,0.1,1.2,0.1c0.6,0,1.2-0.1,1.7-0.2c-3-0.6-5.2-3.2-5.2-6.3c0,0,0-0.1,0-0.1
	c0.9,0.5,1.9,0.8,2.9,0.8c-1.7-1.2-2.9-3.1-2.9-5.4c0-1.2,0.3-2.3,0.9-3.2c3.2,3.9,7.9,6.5,13.3,6.7c-0.1-0.5-0.2-1-0.2-1.5
	c0-3.6,2.9-6.5,6.5-6.5c1.9,0,3.5,0.8,4.7,2c1.5-0.3,2.9-0.8,4.1-1.6c-0.5,1.5-1.5,2.8-2.8,3.6c1.3-0.2,2.6-0.5,3.7-1
	C45.3,22.8,44.2,23.9,42.9,24.8z"/>
</svg>
